<svg version="1.1" id="Layer_1" xmlns="http://www.w3.org/2000/svg" xmlns:xlink="http://www.w3.org/1999/xlink" x="0px" y="0px"
	 width="100%" viewBox="0 0 256 256" enable-background="new 0 0 256 256" xml:space="preserve">
<path fill="#FEFFFF" opacity="1.000000" stroke="none" 
	d="
M168.000000,257.000000 
	C112.000000,257.000000 56.500008,257.000000 1.000007,257.000000 
	C1.000005,171.666672 1.000005,86.333351 1.000003,1.000019 
	C86.333321,1.000013 171.666641,1.000013 257.000000,1.000006 
	C257.000000,86.333313 257.000000,171.666626 257.000000,256.999969 
	C227.500000,257.000000 198.000000,257.000000 168.000000,257.000000 
M202.316620,200.645294 
	C221.779739,200.605026 237.465973,189.897842 242.913025,172.785629 
	C245.662704,164.147354 245.716690,155.403259 242.810471,146.803101 
	C239.062668,135.712433 231.385773,127.938194 221.289429,122.623672 
	C226.199951,93.570251 212.868042,67.547455 187.388931,56.999077 
	C163.255569,47.007839 132.146912,52.821098 114.215202,81.910912 
	C113.644043,81.725296 113.017456,81.566116 112.425415,81.322861 
	C87.870285,71.234001 64.506607,81.303757 54.796181,105.988556 
	C54.261768,107.347092 52.209335,108.641624 50.648384,108.983353 
	C26.591600,114.249893 11.053602,135.500320 13.811617,159.593109 
	C16.578316,183.761749 35.727348,200.637650 60.428909,200.642593 
	C107.404861,200.652008 154.380814,200.645172 202.316620,200.645294 
z"/>
<path fill="#1E699E" opacity="1.000000" stroke="none" 
	d="
M201.836700,200.645172 
	C154.380814,200.645172 107.404861,200.652008 60.428909,200.642593 
	C35.727348,200.637650 16.578316,183.761749 13.811617,159.593109 
	C11.053602,135.500320 26.591600,114.249893 50.648384,108.983353 
	C52.209335,108.641624 54.261768,107.347092 54.796181,105.988556 
	C64.506607,81.303757 87.870285,71.234001 112.425415,81.322861 
	C113.017456,81.566116 113.644043,81.725296 114.215202,81.910912 
	C132.146912,52.821098 163.255569,47.007839 187.388931,56.999077 
	C212.868042,67.547455 226.199951,93.570251 221.289429,122.623672 
	C231.385773,127.938194 239.062668,135.712433 242.810471,146.803101 
	C245.716690,155.403259 245.662704,164.147354 242.913025,172.785629 
	C237.465973,189.897842 221.779739,200.605026 201.836700,200.645172 
M184.536438,71.834038 
	C172.732941,65.851761 160.526138,65.120819 148.456345,70.361969 
	C130.999466,77.942390 122.470947,92.016136 121.148438,111.044395 
	C114.923561,97.450157 104.782890,89.764473 90.201096,92.384270 
	C73.719246,95.345428 66.736908,107.082985 67.523781,123.711861 
	C66.365417,123.494530 65.737900,123.352318 65.103058,123.261246 
	C46.348713,120.571037 29.085873,133.736084 28.015038,151.540802 
	C26.844513,171.003067 40.862690,186.002197 60.261517,186.005844 
	C108.233299,186.014847 156.205078,186.023254 204.176865,185.998581 
	C216.876556,185.992050 228.223282,176.518250 229.965637,164.602509 
	C231.961197,150.955124 224.773651,138.964722 211.948196,135.020401 
	C208.732224,134.031357 205.254044,133.894913 201.881409,133.364288 
	C212.246307,103.319107 207.405762,85.597145 184.536438,71.834038 
z"/>
<path fill="#E0DDD9" opacity="1.000000" stroke="none" 
	d="
M184.877747,71.982727 
	C207.405762,85.597145 212.246307,103.319107 201.881409,133.364288 
	C205.254044,133.894913 208.732224,134.031357 211.948196,135.020401 
	C224.773651,138.964722 231.961197,150.955124 229.965637,164.602509 
	C228.223282,176.518250 216.876556,185.992050 204.176865,185.998581 
	C156.205078,186.023254 108.233299,186.014847 60.261517,186.005844 
	C40.862690,186.002197 26.844513,171.003067 28.015038,151.540802 
	C29.085873,133.736084 46.348713,120.571037 65.103058,123.261246 
	C65.737900,123.352318 66.365417,123.494530 67.523781,123.711861 
	C66.736908,107.082985 73.719246,95.345428 90.201096,92.384270 
	C104.782890,89.764473 114.923561,97.450157 121.148438,111.044395 
	C122.470947,92.016136 130.999466,77.942390 148.456345,70.361969 
	C160.526138,65.120819 172.732941,65.851761 184.877747,71.982727 
z"/>
</svg>