<?xml version="1.0" standalone="no"?>
<!DOCTYPE svg PUBLIC "-//W3C//DTD SVG 20010904//EN"
 "http://www.w3.org/TR/2001/REC-SVG-20010904/DTD/svg10.dtd">
<svg version="1.0" xmlns="http://www.w3.org/2000/svg"
 width="256.000000pt" height="256.000000pt" viewBox="0 0 256.000000 256.000000"
 preserveAspectRatio="xMidYMid meet">
<metadata>
Created by potrace 1.16, written by Peter Selinger 2001-2019
</metadata>
<g transform="translate(0.000000,256.000000) scale(0.100000,-0.100000)"
fill="#1E699E" stroke="none">
<path d="M1505 2026 c-125 -30 -248 -112 -326 -216 -23 -30 -42 -56 -44 -58
-1 -2 -31 7 -66 19 -52 17 -81 20 -154 17 -112 -5 -181 -34 -261 -110 -52 -49
-114 -148 -114 -182 0 -9 -16 -16 -43 -20 -105 -16 -247 -116 -304 -214 -79
-135 -83 -314 -11 -456 26 -52 112 -142 164 -172 22 -13 67 -33 99 -44 56 -19
84 -20 860 -20 776 0 804 1 860 20 178 61 297 256 267 436 -20 121 -84 222
-181 284 l-48 31 5 97 c8 176 -43 309 -167 433 -82 82 -159 127 -266 154 -70
18 -199 18 -270 1z m319 -169 c213 -106 306 -363 206 -569 -11 -23 -20 -45
-20 -50 0 -4 19 -8 43 -8 23 0 62 -10 87 -21 98 -44 150 -127 150 -236 -1
-110 -49 -191 -142 -237 l-52 -26 -790 0 -791 0 -55 26 c-68 31 -124 84 -158
149 -23 43 -27 62 -27 140 0 78 4 97 27 141 34 65 114 138 175 158 26 9 78 16
117 16 l71 0 2 54 c6 235 299 343 466 171 20 -21 42 -53 49 -71 7 -19 15 -34
19 -34 3 0 9 29 12 65 16 166 144 312 317 362 27 8 80 11 133 9 77 -3 98 -8
161 -39z"/>
</g>
<path fill="#E0DDD9" opacity="1.000000" stroke="none" 
	d="
M184.877747,71.982727 
	C207.405762,85.597145 212.246307,103.319107 201.881409,133.364288 
	C205.254044,133.894913 208.732224,134.031357 211.948196,135.020401 
	C224.773651,138.964722 231.961197,150.955124 229.965637,164.602509 
	C228.223282,176.518250 216.876556,185.992050 204.176865,185.998581 
	C156.205078,186.023254 108.233299,186.014847 60.261517,186.005844 
	C40.862690,186.002197 26.844513,171.003067 28.015038,151.540802 
	C29.085873,133.736084 46.348713,120.571037 65.103058,123.261246 
	C65.737900,123.352318 66.365417,123.494530 67.523781,123.711861 
	C66.736908,107.082985 73.719246,95.345428 90.201096,92.384270 
	C104.782890,89.764473 114.923561,97.450157 121.148438,111.044395 
	C122.470947,92.016136 130.999466,77.942390 148.456345,70.361969 
	C160.526138,65.120819 172.732941,65.851761 184.877747,71.982727 
z"/>
</svg>
